<?xml version="1.0" encoding="UTF-8"?>
<svg id="Calque_2" data-name="Calque 2" xmlns="http://www.w3.org/2000/svg" xmlns:xlink="http://www.w3.org/1999/xlink" viewBox="0 0 38.71 38.81">
  <defs>
    <style>
      .cls-1, .cls-2 {
        stroke: #f7d17b;
      }

      .cls-1, .cls-2, .cls-3, .cls-4 {
        stroke-miterlimit: 10;
      }

      .cls-1, .cls-2, .cls-4 {
        fill: none;
      }

      .cls-1, .cls-5 {
        stroke-linecap: round;
      }

      .cls-6 {
        clip-path: url(#clippath);
      }

      .cls-5 {
        fill: #1e1700;
        stroke-linejoin: round;
      }

      .cls-5, .cls-3, .cls-4 {
        stroke: #5d512e;
        stroke-width: .5px;
      }

      .cls-3 {
        fill: #1d1d1b;
      }

      .cls-7 {
        font-size: 25.82px;
      }

      .cls-7, .cls-8 {
        fill: #fff;
        font-family: Onyx, Onyx;
      }

      .cls-8 {
        font-size: 12.91px;
      }
    </style>
    <clipPath id="clippath">
      <rect class="cls-4" x=".25" y=".25" width="38.21" height="38.31" rx="7.91" ry="7.91"/>
    </clipPath>
  </defs>
  <g id="Calque_1-2" data-name="Calque 1">
    <g>
      <g>
        <g class="cls-6">
          <g>
            <polygon class="cls-5" points="19.03 -4.65 14.53 -4.65 12.28 -.75 14.53 3.16 19.03 3.16 21.28 -.75 19.03 -4.65"/>
            <polygon class="cls-5" points="12.33 -.75 7.84 -.75 5.59 3.16 7.84 7.06 12.33 7.06 14.58 3.16 12.33 -.75"/>
            <polygon class="cls-5" points="12.33 7.06 7.84 7.06 5.59 10.97 7.84 14.87 12.33 14.87 14.58 10.97 12.33 7.06"/>
            <polygon class="cls-5" points="5.59 3.16 1.1 3.16 -1.15 7.06 1.1 10.97 5.59 10.97 7.84 7.06 5.59 3.16"/>
            <polygon class="cls-5" points="19.03 3.16 14.53 3.16 12.28 7.06 14.53 10.97 19.03 10.97 21.28 7.06 19.03 3.16"/>
            <polygon class="cls-5" points="1.1 3.16 5.59 3.16 7.84 -.75 5.59 -4.65 1.1 -4.65 -1.15 -.75 1.1 3.16"/>
            <polygon class="cls-5" points="39.26 -.75 34.76 -.75 32.51 3.16 34.76 7.06 39.26 7.06 41.5 3.16 39.26 -.75"/>
            <polygon class="cls-5" points="32.56 3.16 28.06 3.16 25.82 7.06 28.06 10.97 32.56 10.97 34.81 7.06 32.56 3.16"/>
            <polygon class="cls-5" points="32.56 10.97 28.06 10.97 25.82 14.87 28.06 18.78 32.56 18.78 34.81 14.87 32.56 10.97"/>
            <polygon class="cls-5" points="25.82 7.06 21.32 7.06 19.08 10.97 21.32 14.87 25.82 14.87 28.07 10.97 25.82 7.06"/>
            <polygon class="cls-5" points="39.26 7.06 34.76 7.06 32.51 10.97 34.76 14.87 39.26 14.87 41.5 10.97 39.26 7.06"/>
            <polygon class="cls-5" points="28.06 3.16 32.56 3.16 34.81 -.75 32.56 -4.65 28.06 -4.65 25.82 -.75 28.06 3.16"/>
            <polygon class="cls-5" points="21.32 7.06 25.82 7.06 28.07 3.16 25.82 -.75 21.32 -.75 19.08 3.16 21.32 7.06"/>
            <polygon class="cls-5" points="25.74 14.87 21.25 14.87 19 18.78 21.25 22.68 25.74 22.68 27.99 18.78 25.74 14.87"/>
            <polygon class="cls-5" points="19.05 18.78 14.55 18.78 12.3 22.68 14.55 26.59 19.05 26.59 21.3 22.68 19.05 18.78"/>
            <polygon class="cls-5" points="19.05 26.59 14.55 26.59 12.3 30.49 14.55 34.4 19.05 34.4 21.3 30.49 19.05 26.59"/>
            <polygon class="cls-5" points="12.31 22.68 7.81 22.68 5.56 26.59 7.81 30.49 12.31 30.49 14.56 26.59 12.31 22.68"/>
            <polygon class="cls-5" points="25.74 22.68 21.25 22.68 19 26.59 21.25 30.49 25.74 30.49 27.99 26.59 25.74 22.68"/>
            <polygon class="cls-5" points="14.55 18.78 19.05 18.78 21.3 14.87 19.05 10.97 14.55 10.97 12.3 14.87 14.55 18.78"/>
            <polygon class="cls-5" points="7.81 22.68 12.31 22.68 14.56 18.78 12.31 14.87 7.81 14.87 5.56 18.78 7.81 22.68"/>
            <polygon class="cls-5" points="39.28 22.68 34.78 22.68 32.53 26.59 34.78 30.49 39.28 30.49 41.53 26.59 39.28 22.68"/>
            <polygon class="cls-5" points="39.28 30.49 34.78 30.49 32.53 34.4 34.78 38.3 39.28 38.3 41.53 34.4 39.28 30.49"/>
            <polygon class="cls-5" points="32.54 26.59 28.04 26.59 25.79 30.49 28.04 34.4 32.54 34.4 34.79 30.49 32.54 26.59"/>
            <polygon class="cls-5" points="34.78 22.68 39.28 22.68 41.53 18.78 39.28 14.87 34.78 14.87 32.53 18.78 34.78 22.68"/>
            <polygon class="cls-5" points="28.04 26.59 32.54 26.59 34.79 22.68 32.54 18.78 28.04 18.78 25.79 22.68 28.04 26.59"/>
            <polygon class="cls-5" points="5.67 10.71 1.17 10.71 -1.07 14.61 1.17 18.52 5.67 18.52 7.92 14.61 5.67 10.71"/>
            <polygon class="cls-5" points="-1.02 14.61 -5.52 14.61 -7.77 18.52 -5.52 22.42 -1.02 22.42 1.22 18.52 -1.02 14.61"/>
            <polygon class="cls-5" points="-1.02 22.42 -5.52 22.42 -7.77 26.33 -5.52 30.23 -1.02 30.23 1.22 26.33 -1.02 22.42"/>
            <polygon class="cls-5" points="5.67 18.52 1.17 18.52 -1.07 22.42 1.17 26.33 5.67 26.33 7.92 22.42 5.67 18.52"/>
            <polygon class="cls-5" points="-5.52 14.61 -1.02 14.61 1.22 10.71 -1.02 6.8 -5.52 6.8 -7.77 10.71 -5.52 14.61"/>
            <polygon class="cls-5" points="12.31 30.49 7.81 30.49 5.56 34.4 7.81 38.3 12.31 38.3 14.56 34.4 12.31 30.49"/>
            <polygon class="cls-5" points="5.62 34.4 1.12 34.4 -1.13 38.3 1.12 42.2 5.62 42.2 7.86 38.3 5.62 34.4"/>
            <polygon class="cls-5" points="-1.12 38.3 -5.62 38.3 -7.87 42.2 -5.62 46.11 -1.12 46.11 1.12 42.2 -1.12 38.3"/>
            <polygon class="cls-5" points="12.31 38.3 7.81 38.3 5.56 42.2 7.81 46.11 12.31 46.11 14.56 42.2 12.31 38.3"/>
            <polygon class="cls-5" points="1.12 34.4 5.62 34.4 7.86 30.49 5.62 26.59 1.12 26.59 -1.13 30.49 1.12 34.4"/>
            <polygon class="cls-5" points="-5.62 38.3 -1.12 38.3 1.12 34.4 -1.12 30.49 -5.62 30.49 -7.87 34.4 -5.62 38.3"/>
            <polygon class="cls-5" points="32.54 34.4 28.04 34.4 25.79 38.3 28.04 42.2 32.54 42.2 34.79 38.3 32.54 34.4"/>
            <polygon class="cls-5" points="25.84 38.3 21.35 38.3 19.1 42.2 21.35 46.11 25.84 46.11 28.09 42.2 25.84 38.3"/>
            <polygon class="cls-5" points="21.35 38.3 25.84 38.3 28.09 34.4 25.84 30.49 21.35 30.49 19.1 34.4 21.35 38.3"/>
            <polygon class="cls-5" points="14.61 42.2 19.1 42.2 21.35 38.3 19.1 34.4 14.61 34.4 12.36 38.3 14.61 42.2"/>
          </g>
        </g>
        <rect class="cls-4" x=".25" y=".25" width="38.21" height="38.31" rx="7.91" ry="7.91"/>
      </g>
      <rect class="cls-3" x=".25" y="8.84" width="38.21" height="21.53"/>
      <g>
        <path class="cls-2" d="m9.9,15.47c-.21.24-.52.63-.79,1.18-.27.53-.37.95-.49,1.33-.17.55-.39,1.07-.61,1.51-.16.31-.31.58-.46.79-.66.98-2.03,2.17-3.32,1.72-.49-.17-.83-.54-1.03-.79-.12-.23-.27-.6-.31-1.07-.09-1.05.44-1.86.76-2.34.99-1.47,2.36-1.9,3.12-2.13.65-.2,1.75-.44,3.15-.2Z"/>
        <path class="cls-2" d="m9.9,19.84c-.26,0-.55-.02-.87-.08-.39-.07-.74-.17-1.03-.28"/>
        <path class="cls-2" d="m6.82,21.13c.62,1.04,3.07,1.11,3.07,1.11"/>
        <path class="cls-2" d="m9.9,24.42c-.37.03-.89,0-1.47-.22-.28-.11-.51-.24-.71-.37"/>
        <path class="cls-2" d="m10.17,26.98c-.53-.41-1.2-1.04-1.81-1.93-1.08-1.61-1.34-3.21-1.41-4.05"/>
        <path class="cls-2" d="m7.86,15.43c-.02-.15-.13-1.2.48-2.08.19-.27.4-.47.61-.6.45-.29.86-.32.95-.32"/>
        <path class="cls-1" d="m7.36,10.92c.25.16.57.41.9.79.32.37.55.74.69,1.03"/>
      </g>
      <text class="cls-7" transform="translate(8.7 28.95)"><tspan x="0" y="0">H</tspan></text>
      <text class="cls-7" transform="translate(26.33 28.63)"><tspan x="0" y="0">S</tspan></text>
      <text class="cls-8" transform="translate(18.25 19.25)"><tspan x="0" y="0">A</tspan></text>
      <text class="cls-8" transform="translate(22.38 19.25)"><tspan x="0" y="0">P</tspan></text>
      <text class="cls-8" transform="translate(22.38 28.95)"><tspan x="0" y="0">I</tspan></text>
      <text class="cls-8" transform="translate(18.07 28.95)"><tspan x="0" y="0">P</tspan></text>
    </g>
  </g>
</svg>