<?xml version="1.0" encoding="UTF-8"?>
<svg id="Calque_2" data-name="Calque 2" xmlns="http://www.w3.org/2000/svg" xmlns:xlink="http://www.w3.org/1999/xlink" viewBox="0 0 142.73 142.73">
  <defs>
    <style>
      .cls-1 {
        font-size: 47.77px;
      }

      .cls-1, .cls-2 {
        fill: #fff;
        font-family: Onyx, Onyx;
      }

      .cls-2 {
        font-size: 95.53px;
      }

      .cls-3 {
        fill: #1e1700;
        stroke-linejoin: round;
      }

      .cls-3, .cls-4, .cls-5 {
        stroke: #5d512e;
      }

      .cls-3, .cls-6 {
        stroke-linecap: round;
      }

      .cls-4, .cls-7, .cls-5, .cls-6 {
        stroke-miterlimit: 10;
      }

      .cls-4, .cls-7, .cls-6 {
        fill: none;
      }

      .cls-7, .cls-6 {
        stroke: #f7d17b;
        stroke-width: 3px;
      }

      .cls-5 {
        fill: #1d1d1b;
      }

      .cls-8 {
        clip-path: url(#clippath);
      }
    </style>
    <clipPath id="clippath">
      <rect class="cls-4" x=".5" y=".5" width="141.73" height="141.73" rx="25.76" ry="25.76"/>
    </clipPath>
  </defs>
  <g id="Calque_1-2" data-name="Calque 1">
    <g>
      <g>
        <g class="cls-8">
          <g>
            <polygon class="cls-3" points="70.15 -17.64 53.47 -17.64 45.13 -3.19 53.47 11.25 70.15 11.25 78.49 -3.19 70.15 -17.64"/>
            <polygon class="cls-3" points="45.32 -3.19 28.64 -3.19 20.3 11.25 28.64 25.7 45.32 25.7 53.66 11.25 45.32 -3.19"/>
            <polygon class="cls-3" points="45.32 25.7 28.64 25.7 20.3 40.14 28.64 54.59 45.32 54.59 53.66 40.14 45.32 25.7"/>
            <polygon class="cls-3" points="20.32 11.25 3.64 11.25 -4.7 25.7 3.64 40.14 20.32 40.14 28.66 25.7 20.32 11.25"/>
            <polygon class="cls-3" points="70.15 11.25 53.47 11.25 45.13 25.7 53.47 40.14 70.15 40.14 78.49 25.7 70.15 11.25"/>
            <polygon class="cls-3" points="3.64 11.25 20.32 11.25 28.66 -3.19 20.32 -17.64 3.64 -17.64 -4.7 -3.19 3.64 11.25"/>
            <polygon class="cls-3" points="145.19 -3.19 128.51 -3.19 120.17 11.25 128.51 25.7 145.19 25.7 153.53 11.25 145.19 -3.19"/>
            <polygon class="cls-3" points="120.36 11.25 103.68 11.25 95.34 25.7 103.68 40.14 120.36 40.14 128.7 25.7 120.36 11.25"/>
            <polygon class="cls-3" points="120.36 40.14 103.68 40.14 95.34 54.59 103.68 69.04 120.36 69.04 128.7 54.59 120.36 40.14"/>
            <polygon class="cls-3" points="95.36 25.7 78.68 25.7 70.34 40.14 78.68 54.59 95.36 54.59 103.7 40.14 95.36 25.7"/>
            <polygon class="cls-3" points="145.19 25.7 128.51 25.7 120.17 40.14 128.51 54.59 145.19 54.59 153.53 40.14 145.19 25.7"/>
            <polygon class="cls-3" points="103.68 11.25 120.36 11.25 128.7 -3.19 120.36 -17.64 103.68 -17.64 95.34 -3.19 103.68 11.25"/>
            <polygon class="cls-3" points="78.68 25.7 95.36 25.7 103.7 11.25 95.36 -3.19 78.68 -3.19 70.34 11.25 78.68 25.7"/>
            <polygon class="cls-3" points="95.07 54.59 78.39 54.59 70.05 69.04 78.39 83.48 95.07 83.48 103.41 69.04 95.07 54.59"/>
            <polygon class="cls-3" points="70.24 69.04 53.55 69.04 45.21 83.48 53.55 97.93 70.24 97.93 78.58 83.48 70.24 69.04"/>
            <polygon class="cls-3" points="70.24 97.93 53.55 97.93 45.21 112.37 53.55 126.82 70.24 126.82 78.58 112.37 70.24 97.93"/>
            <polygon class="cls-3" points="45.24 83.48 28.55 83.48 20.21 97.93 28.55 112.37 45.24 112.37 53.58 97.93 45.24 83.48"/>
            <polygon class="cls-3" points="95.07 83.48 78.39 83.48 70.05 97.93 78.39 112.37 95.07 112.37 103.41 97.93 95.07 83.48"/>
            <polygon class="cls-3" points="53.55 69.04 70.24 69.04 78.58 54.59 70.24 40.14 53.55 40.14 45.21 54.59 53.55 69.04"/>
            <polygon class="cls-3" points="28.55 83.48 45.24 83.48 53.58 69.04 45.24 54.59 28.55 54.59 20.21 69.04 28.55 83.48"/>
            <polygon class="cls-3" points="145.27 83.48 128.59 83.48 120.25 97.93 128.59 112.37 145.27 112.37 153.61 97.93 145.27 83.48"/>
            <polygon class="cls-3" points="145.27 112.37 128.59 112.37 120.25 126.82 128.59 141.27 145.27 141.27 153.61 126.82 145.27 112.37"/>
            <polygon class="cls-3" points="120.27 97.93 103.59 97.93 95.25 112.37 103.59 126.82 120.27 126.82 128.61 112.37 120.27 97.93"/>
            <polygon class="cls-3" points="128.59 83.48 145.27 83.48 153.61 69.04 145.27 54.59 128.59 54.59 120.25 69.04 128.59 83.48"/>
            <polygon class="cls-3" points="103.59 97.93 120.27 97.93 128.61 83.48 120.27 69.04 103.59 69.04 95.25 83.48 103.59 97.93"/>
            <polygon class="cls-3" points="20.61 39.2 3.93 39.2 -4.41 53.64 3.93 68.09 20.61 68.09 28.95 53.64 20.61 39.2"/>
            <polygon class="cls-3" points="-4.23 53.64 -20.91 53.64 -29.25 68.09 -20.91 82.53 -4.23 82.53 4.11 68.09 -4.23 53.64"/>
            <polygon class="cls-3" points="-4.23 82.53 -20.91 82.53 -29.25 96.98 -20.91 111.42 -4.23 111.42 4.11 96.98 -4.23 82.53"/>
            <polygon class="cls-3" points="20.61 68.09 3.93 68.09 -4.41 82.53 3.93 96.98 20.61 96.98 28.95 82.53 20.61 68.09"/>
            <polygon class="cls-3" points="-20.91 53.64 -4.23 53.64 4.11 39.2 -4.23 24.75 -20.91 24.75 -29.25 39.2 -20.91 53.64"/>
            <polygon class="cls-3" points="45.24 112.37 28.55 112.37 20.21 126.82 28.55 141.27 45.24 141.27 53.58 126.82 45.24 112.37"/>
            <polygon class="cls-3" points="20.4 126.82 3.72 126.82 -4.62 141.27 3.72 155.71 20.4 155.71 28.74 141.27 20.4 126.82"/>
            <polygon class="cls-3" points="-4.6 141.27 -21.28 141.27 -29.62 155.71 -21.28 170.16 -4.6 170.16 3.74 155.71 -4.6 141.27"/>
            <polygon class="cls-3" points="45.24 141.27 28.55 141.27 20.21 155.71 28.55 170.16 45.24 170.16 53.58 155.71 45.24 141.27"/>
            <polygon class="cls-3" points="3.72 126.82 20.4 126.82 28.74 112.37 20.4 97.93 3.72 97.93 -4.62 112.37 3.72 126.82"/>
            <polygon class="cls-3" points="-21.28 141.27 -4.6 141.27 3.74 126.82 -4.6 112.37 -21.28 112.37 -29.62 126.82 -21.28 141.27"/>
            <polygon class="cls-3" points="120.27 126.82 103.59 126.82 95.25 141.27 103.59 155.71 120.27 155.71 128.61 141.27 120.27 126.82"/>
            <polygon class="cls-3" points="95.44 141.27 78.76 141.27 70.42 155.71 78.76 170.16 95.44 170.16 103.78 155.71 95.44 141.27"/>
            <polygon class="cls-3" points="78.76 141.27 95.44 141.27 103.78 126.82 95.44 112.37 78.76 112.37 70.42 126.82 78.76 141.27"/>
            <polygon class="cls-3" points="53.76 155.71 70.44 155.71 78.78 141.27 70.44 126.82 53.76 126.82 45.42 141.27 53.76 155.71"/>
          </g>
        </g>
        <rect class="cls-4" x=".5" y=".5" width="141.73" height="141.73" rx="25.76" ry="25.76"/>
      </g>
      <rect class="cls-5" x=".5" y="32.26" width="141.73" height="79.67"/>
      <g>
        <path class="cls-7" d="m36.29,56.81c-.79.9-1.92,2.34-2.94,4.38-.99,1.97-1.38,3.5-1.83,4.91-.64,2.02-1.45,3.95-2.27,5.57-.58,1.15-1.16,2.15-1.69,2.93-2.46,3.63-7.52,8.04-12.3,6.36-1.82-.64-3.09-1.98-3.84-2.94-.45-.86-1.01-2.21-1.16-3.94-.34-3.88,1.63-6.89,2.81-8.64,3.66-5.43,8.76-7.02,11.56-7.9,2.41-.75,6.5-1.63,11.67-.74Z"/>
        <path class="cls-7" d="m36.29,72.98c-.96,0-2.04-.08-3.22-.28-1.46-.25-2.74-.63-3.83-1.03"/>
        <path class="cls-7" d="m24.88,77.74c2.3,3.86,11.4,4.11,11.4,4.11"/>
        <path class="cls-7" d="m36.29,89.9c-1.35.1-3.29.02-5.46-.81-1.03-.39-1.91-.88-2.64-1.35"/>
        <path class="cls-7" d="m37.3,99.4c-1.96-1.53-4.47-3.84-6.7-7.16-4.01-5.95-4.96-11.87-5.22-15"/>
        <path class="cls-7" d="m28.73,56.65c-.07-.57-.5-4.43,1.78-7.71.7-1.02,1.49-1.73,2.26-2.23,1.65-1.08,3.19-1.17,3.52-1.18"/>
        <path class="cls-6" d="m26.86,39.99c.92.6,2.12,1.52,3.33,2.91,1.2,1.37,2.02,2.74,2.58,3.81"/>
      </g>
      <text class="cls-2" transform="translate(31.86 106.66)"><tspan x="0" y="0">H</tspan></text>
      <text class="cls-2" transform="translate(97.25 105.51)"><tspan x="0" y="0">S</tspan></text>
      <text class="cls-1" transform="translate(67.29 70.79)"><tspan x="0" y="0">A</tspan></text>
      <text class="cls-1" transform="translate(82.58 70.79)"><tspan x="0" y="0">P</tspan></text>
      <text class="cls-1" transform="translate(82.58 106.66)"><tspan x="0" y="0">I</tspan></text>
      <text class="cls-1" transform="translate(66.61 106.66)"><tspan x="0" y="0">P</tspan></text>
    </g>
  </g>
</svg>